<?xml version="1.0" standalone="no"?><!DOCTYPE svg PUBLIC "-//W3C//DTD SVG 1.1//EN" "http://www.w3.org/Graphics/SVG/1.1/DTD/svg11.dtd"><svg t="1534410845665" class="icon" style="" viewBox="0 0 1024 1024" version="1.1" xmlns="http://www.w3.org/2000/svg" p-id="2347" xmlns:xlink="http://www.w3.org/1999/xlink" width="64" height="64"><defs><style type="text/css"></style></defs><path d="M228.94592 908.94336l-23.08096-82.82112 42.78272-124.16 106.45504-118.8352 91.136-54.60992-7.04512-26.53184 3.70688-18.69824-69.55008-54.44608-94.74048-83.65056-34.33472-58.6752-31.26272-142.08 10.10688-53.15584 558.63296-20.8896L798.72 148.77696v43.91936l-23.88992 103.81312-73.46176 86.20032-110.53056 83.64032-10.71104 18.64704-7.71072 31.85664 123.15648 90.95168L770.6624 719.4624l17.8176 82.944v84.30592l-7.45472 18.75968z" fill="#FFFFFF" p-id="2348"></path><path d="M192.69632 102.4h632.6784c20.71552 0 37.51936-20.24448 37.51936-40.96 0-20.71552-16.7936-40.96-37.51936-40.96H192.69632c-20.71552 0-37.51936 20.24448-37.51936 40.96 0 20.71552 16.7936 40.96 37.51936 40.96zM813.44512 901.12h-30.19776c1.76128 0 2.82624-5.5296 2.82624-9.96352 0-16.18944-13.1584-32.94208-29.39904-32.94208-15.19616 0-27.5456 12.1856-29.09184 22.4256h-21.6576C613.55008 860.16 545.5872 704.8192 530.3296 599.0912c-16.41472-113.7152 39.43424-100.3008 39.43424-100.3008l138.46528-138.88512s-49.72544 17.74592-218.54208-49.4592c-168.81664-67.21536-221.96224 26.51136-221.96224 26.51136l160.31744 139.28448 14.87872 7.04512c55.02976 72.62208 24.10496 175.95392-8.72448 275.6096-21.5552 65.44384-107.8272 109.1584-164.51584 131.45088a29.4912 29.4912 0 0 0 0.5632-5.59104 29.34784 29.34784 0 0 0-29.39904-29.30688c-16.2304 0-29.39904 10.36288-29.39904 26.55232 0 8.76544 3.96288 19.12832 10.0864 19.12832h-19.02592C179.52768 901.12 163.84 925.27616 163.84 948.26496v11.7248C163.84 982.96832 179.52768 1003.52 202.51648 1003.52h610.93888C836.43392 1003.52 860.16 982.96832 860.16 959.98976v-11.7248C860.16 925.27616 836.43392 901.12 813.44512 901.12z" fill="#ECF0F9" p-id="2349"></path><path d="M811.68384 896.09216h-6.144c41.51296-196.95616-127.30368-321.8432-202.48576-366.78656-11.14112-6.656-24.33024-16.62976-23.9104-28.18048 0.53248-14.91968 23.26528-27.0336 31.51872-31.20128 224.53248-157.17376 209.57184-314.73664 199.2704-352.256h1.75104c31.0272 0 56.2688-25.2416 56.2688-56.2688S842.72128 5.12 811.68384 5.12H202.07616c-31.0272 0-56.2688 25.2416-56.2688 56.2688s25.2416 56.2688 56.2688 56.2688h6.36928c-10.30144 37.51936-24.08448 194.7136 200.45824 351.88736 7.69024 3.85024 29.77792 17.59232 30.33088 32.52224 0.44032 11.5712-12.76928 20.85888-23.9104 27.52512-75.18208 44.94336-243.99872 169.54368-202.48576 366.49984h-10.76224a56.33024 56.33024 0 0 0-56.2688 56.2688 56.33024 56.33024 0 0 0 56.2688 56.2688h609.61792a56.33024 56.33024 0 0 0 56.2688-56.2688 56.33024 56.33024 0 0 0-56.27904-56.2688zM164.5568 61.3888a37.56032 37.56032 0 0 1 37.51936-37.51936h609.61792c20.69504 0 37.51936 16.82432 37.51936 37.51936s-16.82432 37.51936-37.51936 37.51936H202.07616a37.55008 37.55008 0 0 1-37.51936-37.51936z m260.38272 484.01408c22.54848-13.47584 33.66912-28.35456 33.04448-45.0048-1.024-27.40224-33.792-43.08992-40.0384-46.32576C196.608 298.86464 219.98592 145.79712 227.8912 117.6576H790.528c8.0384 28.13952 32.02048 180.85888-190.08512 336.60928-6.2464 3.23584-39.0144 20.28544-40.0384 47.68768-0.62464 16.65024 10.496 30.55616 33.04448 44.032 89.6512 53.59616 233.5744 171.90912 192.98304 350.1056H231.95648c-40.6016-178.19648 103.33184-297.09312 192.98304-350.68928z m386.74432 444.47744H202.07616a37.56032 37.56032 0 0 1-37.51936-37.51936 37.56032 37.56032 0 0 1 37.51936-37.51936h609.61792a37.55008 37.55008 0 0 1 37.51936 37.51936 37.57056 37.57056 0 0 1-37.5296 37.51936z" fill="#7396F0" p-id="2350"></path><path d="M226.2528 214.13888m-52.36736 0a52.36736 52.36736 0 1 0 104.73472 0 52.36736 52.36736 0 1 0-104.73472 0Z" fill="#FFFFFF" p-id="2351"></path><path d="M226.2528 279.49056c-36.0448 0-65.36192-29.31712-65.36192-65.36192s29.31712-65.36192 65.36192-65.36192 65.36192 29.31712 65.36192 65.36192-29.32736 65.36192-65.36192 65.36192z m0-111.95392c-25.7024 0-46.60224 20.89984-46.60224 46.60224s20.89984 46.60224 46.60224 46.60224 46.60224-20.89984 46.60224-46.60224-20.89984-46.60224-46.60224-46.60224z" fill="#7396F0" p-id="2352"></path><path d="M695.62368 780.032m-17.58208 0a17.58208 17.58208 0 1 0 35.16416 0 17.58208 17.58208 0 1 0-35.16416 0Z" fill="#ECF0F9" p-id="2353"></path><path d="M610.048 758.92736c-20.69504 0-37.51936-16.82432-37.51936-37.51936s16.82432-37.51936 37.51936-37.51936c20.6848 0 37.51936 16.82432 37.51936 37.51936s-16.83456 37.51936-37.51936 37.51936z m0-56.2688c-10.3424 0-18.75968 8.41728-18.75968 18.75968s8.41728 18.75968 18.75968 18.75968c10.3424 0 18.75968-8.41728 18.75968-18.75968s-8.41728-18.75968-18.75968-18.75968z" fill="#7396F0" p-id="2354"></path><path d="M448.256 440.05376a9.35936 9.35936 0 0 1-4.7104-1.26976c-51.18976-29.76768-99.9936-86.36416-102.05184-88.76032a9.37984 9.37984 0 0 1 14.2336-12.21632c0.48128 0.5632 48.83456 56.60672 97.24928 84.75648a9.3696 9.3696 0 0 1-4.72064 17.48992z" fill="#FFFFFF" p-id="2355"></path></svg>